<svg xmlns="http://www.w3.org/2000/svg" xmlns:xlink="http://www.w3.org/1999/xlink" width="15" height="16" viewBox="0 0 15 16">
    <defs>
        <path id="a" d="M.002.022h14.861v15.937H.003z"/>
    </defs>
    <g fill="none" fill-rule="evenodd">
        <mask id="b" fill="#fff">
            <use xlink:href="#a"/>
        </mask>
        <path fill="#000" d="M14.56 11.812c.081.022.152.01.212-.032.06-.044.091-.11.091-.196v-1.172c0-.218-.09-.391-.272-.522L8.942 6.275c-.181-.108-.272-.282-.272-.52V1.682c0-.217-.04-.424-.12-.619-.222-.608-.535-.945-.937-1.01a.532.532 0 0 0-.181-.032c-.061 0-.131.01-.212.032a.234.234 0 0 0-.076.017.8.8 0 0 0-.105.048.823.823 0 0 0-.393.294c-.12.151-.212.293-.272.423l-.09.228c-.06.195-.091.402-.091.619v4.071c0 .239-.09.413-.272.521L.271 9.89a.611.611 0 0 0-.271.522v1.172c0 .087.03.152.09.196a.24.24 0 0 0 .212.032l5.589-1.954c.08-.044.15-.038.211.016.06.054.09.125.09.212v3.16c0 .238-.08.423-.24.553l-.756.586c-.161.13-.242.315-.242.554v.782c0 .086.03.151.091.195.06.043.13.054.211.032l1.873-.586a.958.958 0 0 1 .605 0l1.872.586c.081.022.152.011.212-.032.06-.044.09-.109.09-.195v-.782c0-.24-.08-.424-.241-.554l-.755-.586c-.161-.13-.242-.315-.242-.554v-3.16c0-.108.03-.184.09-.227.061-.044.132-.044.212 0l5.589 1.954z" mask="url(#b)"/>
    </g>
</svg>
