<svg xmlns="http://www.w3.org/2000/svg" width="15" height="18" viewBox="0 0 15 18">
    <g fill="#FFF" fill-rule="evenodd">
        <path d="M7.526 14.982c-1.995-2.58-4.453-6.3-4.453-7.943 0-2.378 1.998-4.314 4.453-4.314 2.456 0 4.454 1.936 4.454 4.314 0 1.642-2.46 5.362-4.454 7.943zm0-14.413C3.843.569.846 3.47.846 7.039c0 3.263 5.217 9.661 5.811 10.38.212.256.531.405.87.405.337 0 .657-.149.868-.404.595-.72 5.811-7.118 5.811-10.38 0-3.569-2.996-6.471-6.68-6.471z"/>
        <path d="M7.526 4.882c1.23 0 2.227.966 2.227 2.157s-.997 2.157-2.227 2.157S5.3 8.23 5.3 7.04s.997-2.157 2.226-2.157"/>
    </g>
</svg>
